# AST/ASF file generated using VICON BodyLanguage
# -----------------------------------------------
:version 1.10
:name VICON
:units
  mass 1.0
  length 0.45
  angle deg
:documentation
   .ast/.asf automatically generated from VICON data using
   VICON BodyBuilder and BodyLanguage model FoxedUp or BRILLIANT.MOD
:root
   order TX TY TZ RX RY RZ
   axis XYZ
   position 0 0 0  
   orientation 0 0 0 
:bonedata
  begin
     id 1 
     name lhipjoint
     direction 0.521452 -0.77106 0.36545 
     length 2.0933 
     axis 0 0 0  XYZ
  end
  begin
     id 2 
     name lfemur
     direction 0.34202 -0.939693 0  
     length 6.83441  
     axis 0 0 20  XYZ
    dof rx ry rz
    limits (-160.0 20.0)
           (-70.0 70.0)
           (-60.0 70.0)
  end
  begin
     id 3 
     name ltibia
     direction 0.34202 -0.939693 0   
     length 7.28749   
     axis 0 0 20   XYZ
    dof rx
    limits (-10.0 170.0)
  end
  begin
     id 4 
     name lfoot
     direction 0.100608 -0.276418 0.955757   
     length 1.52195   
     axis -90 7.62852e-016 20   XYZ
    dof rx rz
    limits (-45.0 90.0)
           (-70.0 20.0)
  end
  begin
     id 5 
     name ltoes
     direction 1.53558e-011 -4.21907e-011 1   
     length 0.770459   
     axis -90 7.62852e-016 20   XYZ
    dof rx
    limits (-90.0 20.0)
  end
  begin
     id 6 
     name rhipjoint
     direction -0.488071 -0.788702 0.373812   
     length 2.04648  
     axis 0 0 0  XYZ 
  end
  begin
     id 7 
     name rfemur
     direction -0.34202 -0.939693 0   
     length 6.92583   
     axis 0 0 -20   XYZ
    dof rx ry rz
    limits (-160.0 20.0)
           (-70.0 70.0)
           (-70.0 60.0)
  end
  begin
     id 8 
     name rtibia
     direction -0.34202 -0.939693 0   
     length 7.41043   
     axis 0 0 -20   XYZ
    dof rx
    limits (-10.0 170.0)
 end
 begin
     id 9 
     name rfoot
     direction -0.0784433 -0.215521 0.973343   
     length 1.67708  
     axis -90 -7.62852e-016 -20   XYZ
    dof rx rz
    limits (-45.0 90.0)
           (-20.0 70.0)
  end
  begin
     id 10 
     name rtoes
     direction -1.53551e-011 -4.21842e-011 1   
     length 0.849787   
     axis -90 -7.62852e-016 -20   XYZ
    dof rx
    limits (-90.0 20.0)
  end
  begin
     id 11 
     name lowerback
     direction -0.0122332 0.997575 -0.0685192   
     length 1.98724   
     axis 0 0 0   XYZ
    dof rx ry rz
    limits (-20.0 45.0)
           (-30.0 30.0)
           (-30.0 30.0)
  end
  begin
     id 12 
     name upperback
     direction 0.0182347 0.999724 -0.0148421   
     length 1.99029   
     axis 0 0 0   XYZ
    dof rx ry rz
    limits (-20.0 45.0)
           (-30.0 30.0)
           (-30.0 30.0)
  end
  begin
     id 13 
     name thorax
     direction 0.0242908 0.99956 0.0170184   
     length 1.99573   
     axis 0 0 0   XYZ
    dof rx ry rz
    limits (-20.0 45.0)
           (-30.0 30.0)
           (-30.0 30.0)
  end
  begin
     id 14 
     name lowerneck
     direction 0.0654488 0.985533 0.156338   
     length 1.4285   
     axis 0 0 0   XYZ
    dof rx ry rz
    limits (-20.0 45.0)
           (-30.0 30.0)
           (-30.0 30.0)
  end
  begin
     id 15 
     name upperneck
     direction -0.02953 0.998556 -0.0448842   
     length 1.44709   
     axis 0 0 0   XYZ
    dof rx ry rz
    limits (-20.0 45.0)
           (-30.0 30.0)
           (-30.0 30.0)
  end
  begin
     id 16
     name head
     direction -0.0155588 0.999386 -0.0314063  
     length 1.44689  
     axis 0 0 0   XYZ
    dof rx ry rz
    limits (-20.0 45.0)
           (-30.0 30.0)
           (-30.0 30.0)
  end
  begin
     id 17 
     name lclavicle
     direction 0.968229 0.236071 -0.0824755  
     length 3.60593  
     axis 0 0 0   XYZ
    dof ry rz
    limits (-20.0 10.0)
           (0.0 20.0)
  end
  begin
     id 18 
     name lhumerus
     direction 1 -4.48968e-011 7.8138e-029   
     length 5.06035   
     axis 180 -30 -90   XYZ
    dof rx ry rz
    limits (-60.0 90.0)
           (-90.0 90.0)
           (-90.0 90.0)
  end
  begin
     id 19
     name lradius
     direction 1 -4.48967e-011 9.02887e-028   
     length 3.1478   
     axis 180 -30 -90   XYZ
    dof rx
    limits (-10.0 170.0)
  end
  begin
     id 20
     name lwrist
     direction 1 -4.48961e-011 7.20928e-028   
     length 1.5739   
     axis -5.52449e-016 90 90   XYZ
    dof ry
    limits (-180.0 0.0)
 end
  begin
     id 21 
     name lhand
     direction 1 -4.48972e-011 1.44186e-027   
     length 0.606747   
     axis -9.20027e-016 90 90   XYZ
    dof rx rz
    limits (-90.0 90.0)
           (-45.0 45.0)
  end
  begin
     id 22 
     name lfingers
     direction 1 -4.48943e-011 2.88371e-027   
     length 0.489175   
     axis -1.84005e-015 90 90   XYZ
    dof rx
    limits (0.0 90.0)
  end
  begin
     id 23
     name lthumb
     direction 0.707107 -6.34917e-011 0.707107   
     length 0.70236   
     axis -90 45 2.85299e-015   XYZ
    dof rx rz
    limits (-45.0 45.0)
           (-45.0 45.0)
  end
  begin
     id 24 
     name rclavicle
     direction -0.978165 0.207816 0.0022268   
     length 3.35425  
     axis 0 0 0   XYZ 
    dof ry rz
    limits (-10.0 20.0)
           (-20.0 0.0)
  end
  begin
     id 25 
     name rhumerus
     direction -1 -4.48964e-011 -4.02159e-027  
     length 5.12273   
     axis 180 30 90   XYZ
    dof rx ry rz
    limits (-90.0 60.0)
           (-90.0 90.0)
           (-90.0 90.0)
  end
  begin
     id 26 
     name rradius
     direction -1 -4.48966e-011 1.62746e-027   
     length 3.422   
     axis 180 30 90   XYZ
    dof rx
    limits (-10.0 170.0)
  end
  begin
     id 27 
     name rwrist
     direction -1 -4.4896e-011 7.20928e-028   
     length 1.711   
     axis -5.52449e-016 -90 -90   XYZ
    dof ry
    limits (-180.0 0.0)
  end
  begin
     id 28
     name rhand
     direction -1 -4.48979e-011 1.44186e-027   
     length 0.704599   
     axis -9.20027e-016 -90 -90   XYZ
    dof rx rz
    limits (-90.0 90.0)
           (-45.0 45.0)
  end
  begin
     id 29
     name rfingers
     direction -1 -4.48962e-011 2.88371e-027   
     length 0.568066   
     axis -1.84005e-015 -90 -90   XYZ
    dof rx
    limits (0.0 90.0)
  end
  begin
     id 30
     name rthumb
     direction -0.707107 -6.34949e-011 0.707107   
     length 0.815633   
     axis -90 -45 -2.85299e-015   XYZ
    dof rx rz
    limits (-45.0 45.0)
           (-45.0 45.0)
  end
:hierarchy
  begin
    root lhipjoint rhipjoint lowerback
    lhipjoint lfemur
    lfemur ltibia
    ltibia lfoot
    lfoot ltoes
    rhipjoint rfemur
    rfemur rtibia
    rtibia rfoot
    rfoot rtoes
    lowerback upperback
    upperback thorax
    thorax lowerneck lclavicle rclavicle
    lowerneck upperneck
    upperneck head
    lclavicle lhumerus
    lhumerus lradius
    lradius lwrist
    lwrist lhand lthumb
    lhand lfingers
    rclavicle rhumerus
    rhumerus rradius
    rradius rwrist
    rwrist rhand rthumb
    rhand rfingers
  end

#!OML:ASF E:\id_vita\Project 1\Capture day 1\Session 1\Male1.ASF
:FULLY-SPECIFIED
:DEGREES
566
root -23.329 16.0027 -1.26384 -9.92605 87.0273 -14.1565
lowerback -6.39648 -3.54051 -7.29382
upperback -2.1955 -4.26232 2.08998
thorax 1.99097 -2.12326 5.91015
lowerneck 1.82053 -11.1305 -9.06114
upperneck 1.4407 -15.1728 10.2671
head 1.614 -7.59492 4.17109
rclavicle 3.2186e-014 -2.6985e-014
rhumerus -30.7388 -17.6579 -80.0624
rradius 13.5677
rwrist 21.2434
rhand -19.9848 37.4069
rfingers 7.12502
rthumb 6.35453 7.52224
lclavicle 3.2186e-014 -2.6985e-014
lhumerus -28.4331 27.5541 79.8034
lradius 10.892
lwrist -22.735
lhand -12.4 42.9905
lfingers 7.12502
lthumb 13.6715 72.5214
rfemur -5.45109 5.3991 13.8781
rtibia 18.7141
rfoot -12.9653 -16.0198
rtoes -19.0669
lfemur -9.59029 -4.57696 -16.4849
ltibia 27.9729
lfoot -21.6231 16.6733
ltoes -12.4048
567
root -23.3298 16.002 -1.26259 -8.554 87.0619 -12.7659
lowerback -6.37408 -3.54639 -7.40795
upperback -2.1912 -4.26515 2.09785
thorax 1.99187 -2.12524 5.98378
lowerneck 1.79758 -11.2092 -9.10733
upperneck 1.53769 -15.2809 10.1398
head 1.65011 -7.64867 4.1303
rclavicle -6.60183e-015 -1.32689e-014
rhumerus -30.6989 -17.4843 -80.1269
rradius 13.6395
rwrist 21.0296
rhand -19.9422 37.2012
rfingers 7.12502
rthumb 6.39561 7.31772
lclavicle -6.60183e-015 -1.32689e-014
lhumerus -28.4552 27.7309 79.7851
lradius 10.8661
lwrist -22.8779
lhand -12.3312 43.0074
lfingers 7.12502
lthumb 13.7378 72.5339
rfemur -5.42566 5.60639 13.7824
rtibia 18.7249
rfoot -12.9959 -16.0363
rtoes -18.488
lfemur -9.56881 -4.52344 -16.5668
ltibia 27.9704
lfoot -21.5672 16.5862
ltoes -12.2294
568
root -23.3308 15.9982 -1.26419 -9.44162 87.2921 -13.5101
lowerback -6.19587 -3.5902 -7.40427
upperback -2.16754 -4.33819 2.09655
thorax 1.92862 -2.16085 5.98199
lowerneck 1.77796 -11.3118 -9.10357
upperneck 1.65431 -15.4197 9.95864
head 1.68624 -7.71775 4.0649
rclavicle 2.9431e-014 2.41026e-015
rhumerus -30.709 -17.064 -80.3065
rradius 13.7717
rwrist 20.4723
rhand -19.7587 37.1438
rfingers 7.12502
rthumb 6.57274 7.26582
lclavicle 2.9431e-014 2.41026e-015
lhumerus -28.534 28.0415 79.6663
lradius 10.8127
lwrist -23.2183
lhand -12.3096 42.811
lfingers 7.12502
lthumb 13.7586 72.3361
rfemur -5.21654 5.57466 13.8128
rtibia 18.73
rfoot -12.7399 -16.2867
rtoes -18.9086
lfemur -9.4649 -4.55379 -16.5659
ltibia 27.9855
lfoot -21.5209 16.4396
ltoes -12.7572
569
root -23.3304 15.9982 -1.26321 -10.333 87.2143 -14.4636
lowerback -6.26921 -3.58077 -7.36089
upperback -2.17457 -4.32296 2.1256
thorax 1.95892 -2.15389 5.98572
lowerneck 1.66507 -11.3961 -9.02089
upperneck 1.82303 -15.5279 9.74564
head 1.74106 -7.76833 3.97339
rclavicle 5.64067e-014 8.59744e-015
rhumerus -30.6793 -16.8531 -80.4373
rradius 13.8239
rwrist 20.2373
rhand -19.8463 37.2476
rfingers 7.12502
rthumb 6.4882 7.36697
lclavicle 5.64067e-014 8.59744e-015
lhumerus -28.5753 28.2957 79.5471
lradius 10.7797
lwrist -23.4518
lhand -12.3114 42.6657
lfingers 7.12502
lthumb 13.7569 72.1909
rfemur -5.2853 5.45705 13.8896
rtibia 18.7096
rfoot -12.6741 -16.2813
rtoes -19.2977
lfemur -9.51698 -4.58301 -16.4901
ltibia 27.9794
lfoot -21.5783 16.4761
ltoes -12.1175
570
root -23.3287 15.9952 -1.26467 -10.1224 87.2902 -14.1999
lowerback -6.21452 -3.6517 -7.41932
upperback -2.16107 -4.41943 2.16658
thorax 1.96533 -2.20339 6.05455
lowerneck 1.68721 -11.3955 -9.09606
upperneck 1.71835 -15.5237 9.73869
head 1.71123 -7.76854 3.98699
rclavicle 9.77151e-015 2.03754e-015
rhumerus -30.6095 -16.5524 -80.5286
rradius 13.8463
rwrist 20.0891
rhand -20.082 37.3548
rfingers 7.12502
rthumb 6.26065 7.46731
lclavicle 9.77151e-015 2.03754e-015
lhumerus -28.6659 28.698 79.4219
lradius 10.7694
lwrist -23.7168
lhand -12.2981 42.6634
lfingers 7.12502
lthumb 13.7698 72.1878
rfemur -5.18608 5.33809 13.8643
rtibia 18.6907
rfoot -12.7313 -16.2974
rtoes -19.503
lfemur -9.47339 -4.64208 -16.5211
ltibia 27.9908
lfoot -21.7438 16.3589
ltoes -11.4742
571
root -23.3261 16.0051 -1.26326 -7.7303 87.0812 -12.1204
lowerback -6.54016 -3.65606 -7.50487
upperback -2.2536 -4.39471 2.22228
thorax 2.05655 -2.19001 6.14875
lowerneck 1.75772 -11.3999 -9.19609
upperneck 1.50592 -15.5251 9.76707
head 1.64698 -7.77342 4.02061
rclavicle -5.40291e-014 4.42296e-015
rhumerus -30.549 -16.0254 -80.6857
rradius 13.9108
rwrist 19.7001
rhand -20.1255 37.32
rfingers 7.12502
rthumb 6.21862 7.43124
lclavicle -5.40291e-014 4.42296e-015
lhumerus -28.7997 29.1605 79.2652
lradius 10.7462
lwrist -24.0755
lhand -12.2571 42.7064
lfingers 7.12502
lthumb 13.8092 72.228
rfemur -5.58407 5.30411 13.7403
rtibia 18.6749
rfoot -12.6191 -16.0829
rtoes -20.0619
lfemur -9.74665 -4.66232 -16.5917
ltibia 27.975
lfoot -21.773 16.5458
ltoes -11.0999
572
root -23.3273 16.003 -1.26442 -9.6107 87.2987 -13.715
lowerback -6.2264 -3.7363 -7.51682
upperback -2.15968 -4.52774 2.26258
thorax 2.00577 -2.25978 6.19879
lowerneck 1.61125 -11.4444 -9.19663
upperneck 1.57725 -15.5754 9.64015
head 1.68601 -7.79518 3.96964
rclavicle 3.17434e-014 -5.96354e-015
rhumerus -30.4513 -15.6393 -80.8321
rradius 13.9626
rwrist 19.3729
rhand -20.0489 37.1902
rfingers 7.12502
rthumb 6.29257 7.30371
lclavicle 3.17434e-014 -5.96354e-015
lhumerus -28.7712 29.2396 79.3109
lradius 10.7707
lwrist -23.9901
lhand -12.1254 42.7857
lfingers 7.12502
lthumb 13.9361 72.2987
rfemur -5.21902 5.28987 13.8305
rtibia 18.6687
rfoot -12.4592 -16.2369
rtoes -20.1693
lfemur -9.47474 -4.73615 -16.5622
ltibia 27.9734
lfoot -21.6975 16.4229
ltoes -11.8422
573
root -23.3285 16.0048 -1.26185 -9.91225 87.1347 -14.102
lowerback -6.32805 -3.67791 -7.50084
upperback -2.15974 -4.4431 2.28463
thorax 2.04901 -2.21887 6.21607
lowerneck 1.64485 -11.5227 -9.24228
upperneck 1.58274 -15.6861 9.71002
head 1.70187 -7.85087 3.99158
rclavicle -6.33626e-015 2.68359e-014
rhumerus -30.4029 -15.5502 -80.9078
rradius 14.0094
rwrist 19.2149
rhand -19.9812 37.0947
rfingers 7.12502
rthumb 6.35801 7.21016
lclavicle -6.33626e-015 2.68359e-014
lhumerus -28.6833 29.1823 79.3797
lradius 10.7728
lwrist -23.9016
lhand -11.99 42.7507
lfingers 7.12502
lthumb 14.0666 72.2546
rfemur -5.33353 5.34141 13.8806
rtibia 18.6131
rfoot -12.3393 -16.1609
rtoes -20.3077
lfemur -9.55175 -4.72303 -16.5012
ltibia 27.9764
lfoot -21.519 16.5691
ltoes -11.8376
574
root -23.3279 16.0005 -1.26342 -10.4365 87.3042 -14.5145
lowerback -6.23189 -3.70004 -7.50919
upperback -2.12366 -4.47902 2.24665
thorax 2.03659 -2.23803 6.18121
lowerneck 1.91646 -11.5803 -9.30468
upperneck 1.33388 -15.7752 9.91733
head 1.61498 -7.90315 4.08065
rclavicle 4.96434e-014 -5.36719e-015
rhumerus -30.4218 -15.4543 -81.0059
rradius 14.1009
rwrist 19.0624
rhand -19.8844 37.0458
rfingers 7.12502
rthumb 6.45139 7.16409
lclavicle 4.96434e-014 -5.36719e-015
lhumerus -28.7048 29.1752 79.349
lradius 10.7807
lwrist -23.9636
lhand -11.9711 42.7729
lfingers 7.12502
lthumb 14.0849 72.2756
rfemur -5.1306 5.42989 13.8692
rtibia 18.5709
rfoot -12.5654 -16.237
rtoes -19.4917
lfemur -9.48158 -4.78245 -16.5214
ltibia 28.0174
lfoot -21.5585 16.4806
ltoes -12.6719
575
root -23.3268 16.0029 -1.26031 -11.8532 87.1647 -16.0693
lowerback -6.42004 -3.6636 -7.43895
upperback -2.14117 -4.41996 2.27105
thorax 2.11034 -2.20989 6.1632
lowerneck 1.90196 -11.6184 -9.27278
upperneck 1.3557 -15.826 9.92054
head 1.62642 -7.92765 4.07257
rclavicle -3.61477e-014 -2.23633e-014
rhumerus -30.4202 -15.2083 -81.2025
rradius 14.2344
rwrist 18.7025
rhand -19.9329 36.9714
rfingers 7.12502
rthumb 6.40463 7.08818
lclavicle -3.61477e-014 -2.23633e-014
lhumerus -28.6762 28.8522 79.476
lradius 10.8481
lwrist -23.6686
lhand -12.0354 42.9176
lfingers 7.12502
lthumb 14.0229 72.4245
rfemur -5.27768 5.68635 13.9586
rtibia 18.5451
rfoot -12.9512 -16.1213
rtoes -17.9492
lfemur -9.61487 -4.69163 -16.3891
ltibia 28.0237
lfoot -21.5577 16.5264
ltoes -12.1035
576
root -23.3294 16.0031 -1.26097 -12.2317 87.0536 -16.4512
lowerback -6.41976 -3.61608 -7.37344
upperback -2.13332 -4.3611 2.28655
thorax 2.10533 -2.18049 6.14857
lowerneck 1.75432 -11.6672 -9.27087
upperneck 1.52258 -15.8878 9.8001
head 1.69523 -7.9541 4.01885
rclavicle -1.1573e-014 1.36664e-014
rhumerus -30.3868 -14.923 -81.3595
rradius 14.3454
rwrist 18.2895
rhand -19.9966 36.829
rfingers 7.12502
rthumb 6.34306 6.944
lclavicle -1.1573e-014 1.36664e-014
lhumerus -28.6036 28.5787 79.6342
lradius 10.852
lwrist -23.4071
lhand -12.189 42.9449
lfingers 7.12502
lthumb 13.8749 72.4621
rfemur -5.3315 5.6233 14.0045
rtibia 18.542
rfoot -12.9496 -16.0385
rtoes -18.0447
lfemur -9.61552 -4.75598 -16.3527
ltibia 28.0276
lfoot -21.554 16.6836
ltoes -12.628
577
root -23.3288 16.0042 -1.25942 -10.5289 87.1014 -14.7525
lowerback -6.41252 -3.66754 -7.50778
upperback -2.13559 -4.42256 2.30875
thorax 2.12031 -2.21226 6.24195
lowerneck 1.67913 -11.6775 -9.32839
upperneck 1.60868 -15.899 9.67906
head 1.72825 -7.95856 3.98361
rclavicle 3.68373e-014 1.08338e-014
rhumerus -30.3262 -14.617 -81.4411
rradius 14.3975
rwrist 18.1372
rhand -20.0358 36.6646
rfingers 7.12502
rthumb 6.30522 6.77845
lclavicle 3.68373e-014 1.08338e-014
lhumerus -28.5975 28.5606 79.6998
lradius 10.8445
lwrist -23.2714
lhand -12.3528 42.7789
lfingers 7.12502
lthumb 13.717 72.3068
rfemur -5.32039 5.65023 13.9079
rtibia 18.5268
rfoot -13.0311 -16.0505
rtoes -17.6701
lfemur -9.60714 -4.75499 -16.4476
ltibia 28.0141
lfoot -21.7216 16.6103
ltoes -11.7112
578
root -23.3273 16.0008 -1.26182 -9.67382 87.3632 -13.7441
lowerback -6.23861 -3.76236 -7.6103
upperback -2.09734 -4.55667 2.29416
thorax 2.09192 -2.28064 6.27895
lowerneck 1.62047 -11.698 -9.32015
upperneck 1.66085 -15.9221 9.57401
head 1.7459 -7.96907 3.94548
rclavicle 2.88238e-014 -1.27222e-014
rhumerus -30.2743 -14.3498 -81.5479
rradius 14.4236
rwrist 17.9349
rhand -20.0943 36.5047
rfingers 7.12502
rthumb 6.24882 6.61689
lclavicle 2.88238e-014 -1.27222e-014
lhumerus -28.5952 28.6416 79.7056
lradius 10.8214
lwrist -23.2724
lhand -12.4316 42.617
lfingers 7.12502
lthumb 13.641 72.15
rfemur -5.08993 5.61984 13.8101
rtibia 18.5594
rfoot -13.2676 -16.1352
rtoes -16.9128
lfemur -9.46762 -4.73014 -16.5625
ltibia 28.0073
lfoot -21.8169 16.3859
ltoes -11.254
